<svg xmlns="http://www.w3.org/2000/svg" xmlns:svg="http://www.w3.org/2000/svg" id="f2f04349-8aee-4413-84c9-a9053611b319" width="18" height="18" version="1.1" viewBox="0 0 18 18"><metadata id="metadata26"/><defs id="defs9"><linearGradient id="ad4c4f96-09aa-4f91-ba10-5cb8ad530f74" x1="9" x2="9" y1="15.83" y2="5.79" gradientUnits="userSpaceOnUse"><stop id="stop2" offset="0" stop-color="#b3b3b3"/><stop id="stop4" offset=".26" stop-color="#c1c1c1"/><stop id="stop6" offset="1" stop-color="#e6e6e6"/></linearGradient></defs><title id="title11">Icon-storage-86</title><path id="path13" fill="url(#ad4c4f96-09aa-4f91-ba10-5cb8ad530f74)" d="M.5,5.79h17a0,0,0,0,1,0,0v9.48a.57.57,0,0,1-.57.57H1.07a.57.57,0,0,1-.57-.57V5.79A0,0,0,0,1,.5,5.79Z"/><path id="path15" fill="#37c2b1" d="M1.07,2.17H16.93a.57.57,0,0,1,.57.57V5.79a0,0,0,0,1,0,0H.5a0,0,0,0,1,0,0V2.73A.57.57,0,0,1,1.07,2.17Z"/><path id="path17" fill="#fff" d="M2.81,6.89H15.18a.27.27,0,0,1,.26.27v1.4a.27.27,0,0,1-.26.27H2.81a.27.27,0,0,1-.26-.27V7.16A.27.27,0,0,1,2.81,6.89Z"/><path id="path19" fill="#37c2b1" d="M2.82,9.68H15.19a.27.27,0,0,1,.26.27v1.41a.27.27,0,0,1-.26.27H2.82a.27.27,0,0,1-.26-.27V10A.27.27,0,0,1,2.82,9.68Z"/><path id="path21" fill="#258277" d="M2.82,12.5H15.19a.27.27,0,0,1,.26.27v1.41a.27.27,0,0,1-.26.27H2.82a.27.27,0,0,1-.26-.27V12.77A.27.27,0,0,1,2.82,12.5Z"/><g id="shape20-11-3" transform="matrix(0.08637583,0,0,0.08390308,3.4299469,-8.1252329)" style="fill:red;fill-opacity:1"><title id="title32-4">Sheet.20</title><path id="path34-3" d="m 0,200.91 h 18.19 l 16.25,-0.87 12.34,-44.32 c 0.65,-2.61 1.95,-7.83 7.15,-7.83 5.2,0 5.85,5.22 5.85,7.83 l 0.65,73.88 9.09,-25.21 c 0.65,-2.61 2.6,-3.48 3.9,-3.48 h 52.63 c 2.6,0 4.55,3.48 4.55,6.09 0,2.61 -1.95,7.82 -4.55,7.82 H 78.62 l -16.89,45.2 c -1.3,4.34 -2.6,6.08 -6.5,5.21 -1.95,-0.87 -3.9,-4.34 -3.9,-6.95 l -0.65,-67.8 -5.2,18.26 c -0.65,2.6 -1.95,6.08 -3.9,6.08 H 25.99 5.85 L 2.6,207.87 Z" class="st4" style="fill:red;fill-opacity:1"/></g></svg>