<svg xmlns="http://www.w3.org/2000/svg" xmlns:svg="http://www.w3.org/2000/svg" id="Layer_1" x="0" y="0" enable-background="new 0 0 64 64" version="1.1" viewBox="0 0 64 64" xml:space="preserve"><metadata id="metadata17"/><g id="paths" transform="matrix(1.9931036,0,0,1.9931036,-119.22001,-85.548973)" style="fill:#c8c8c8;fill-opacity:.60000002"><g id="Storage_table" style="fill:#c8c8c8;fill-opacity:.60000002"><path id="path56" fill="#0078d7" d="m 85.5,42.3 h -19 L 57,58.7 66.5,75.1 h 18.9 l 9.5,-16.4 z m -10.4,8.6 h 4.4 v 4.4 h -4.4 z m 0,5.5 h 4.4 v 4.4 h -4.4 z m 0,5.5 h 4.4 v 4.4 h -4.4 z m -5.5,-11 H 74 v 4.4 h -4.4 z m 0,5.5 H 74 v 4.4 h -4.4 z m 0,5.5 H 74 v 4.4 h -4.4 z m 15.3,6.8 H 67 V 50.8 h 1.2 v 16.7 0 0 H 84.9 Z M 85,66.3 H 80.6 V 61.9 H 85 Z m 0,-5.5 H 80.6 V 56.4 H 85 Z m 0,-5.5 H 80.6 V 50.9 H 85 Z" style="fill:#c8c8c8;fill-opacity:.60000002"/></g></g><g id="g10"><path id="path2" fill="#3999C6" d="M63.6,32.4c0.6-0.6,0.5-1.7,0-2.3L60.5,27L46.7,13.6c-0.6-0.6-1.5-0.6-2.2,0l0,0c-0.6,0.6-0.8,1.7,0,2.3 L59,30.1c0.6,0.6,0.6,1.7,0,2.3L44.2,47.1c-0.6,0.6-0.6,1.7,0,2.3l0,0c0.6,0.6,1.7,0.5,2.2,0l13.7-13.6c0,0,0,0,0.1-0.1L63.6,32.4z"/><path id="path4" fill="#3999C6" d="M0.4,32.4c-0.6-0.6-0.5-1.7,0-2.3L3.5,27l13.8-13.4c0.6-0.6,1.5-0.6,2.2,0l0,0c0.6,0.6,0.8,1.7,0,2.3 L5.3,30.1c-0.6,0.6-0.6,1.7,0,2.3l14.5,14.7c0.6,0.6,0.6,1.7,0,2.3l0,0c-0.6,0.6-1.7,0.5-2.2,0L3.6,36c0,0,0,0-0.1-0.1L0.4,32.4z"/><polygon id="polygon6" fill="#FCD116" points="47.6 2.5 28.1 2.5 17.6 32.1 30.4 32.2 20.4 61.5 48 22.4 34.6 22.4"/><polygon id="polygon8" fill="#FF8C00" points="34.6 22.4 47.6 2.5 37.4 2.5 26.6 27.1 39.4 27.2 20.4 61.5 48 22.4" enable-background="new" opacity=".3"/></g></svg>